<?xml version="1.0" standalone="no"?>
<!DOCTYPE svg PUBLIC "-//W3C//DTD SVG 20010904//EN"
 "http://www.w3.org/TR/2001/REC-SVG-20010904/DTD/svg10.dtd">
<svg version="1.0" xmlns="http://www.w3.org/2000/svg"
 width="1704.000000pt" height="512.000000pt" viewBox="0 0 1704.000000 512.000000"
 preserveAspectRatio="xMidYMid meet">
<metadata>
Created by potrace 1.16, written by Peter Selinger 2001-2019
</metadata>
<g transform="translate(0.000000,512.000000) scale(0.100000,-0.100000)"
fill="#000000" stroke="none">
<path d="M6129 3905 c-349 -66 -647 -266 -848 -571 -108 -164 -176 -336 -218
-557 -16 -81 -18 -155 -18 -602 0 -446 2 -522 18 -605 76 -408 283 -735 597
-942 217 -144 457 -208 773 -208 376 0 678 106 929 326 274 241 432 563 469
959 17 187 7 954 -15 1068 -52 274 -144 474 -308 672 -181 219 -408 363 -688
438 -111 29 -123 30 -365 33 -185 2 -270 -1 -326 -11z m531 -485 c285 -82 490
-318 572 -659 19 -78 21 -126 25 -521 3 -285 1 -467 -7 -530 -29 -253 -114
-442 -265 -594 -121 -122 -234 -180 -412 -211 -491 -86 -870 230 -943 786 -8
58 -10 236 -7 540 4 482 6 497 59 659 90 279 306 490 550 539 29 6 62 13 73
15 53 13 283 -3 355 -24z"/>
<path d="M8430 2170 l0 -1710 290 0 290 0 0 650 0 650 451 0 c356 0 473 3 556
16 603 89 958 507 930 1097 -11 248 -77 435 -212 605 -170 211 -428 344 -753
387 -91 12 -252 15 -833 15 l-719 0 0 -1710z m1512 1221 c168 -43 290 -138
361 -283 149 -301 42 -685 -226 -816 -130 -63 -148 -65 -629 -69 l-438 -4 0
595 0 596 428 0 c391 0 435 -2 504 -19z"/>
<path d="M630 3471 c0 -5 21 -38 47 -73 94 -126 150 -204 173 -238 13 -19 27
-37 30 -40 3 -3 35 -45 71 -95 36 -49 97 -132 135 -184 118 -161 163 -224 201
-279 25 -36 39 -49 43 -40 4 7 26 83 49 168 22 85 79 295 125 465 45 171 81
313 79 318 -6 10 -953 9 -953 -2z"/>
<path d="M2577 3473 c-3 -5 173 -252 392 -550 l396 -542 478 -1 c282 0 477 4
477 9 0 5 -143 204 -318 443 -174 238 -353 481 -396 541 l-78 107 -473 0
c-261 0 -476 -3 -478 -7z"/>
<path d="M1080 1522 c0 -2 24 -36 53 -75 111 -149 225 -304 272 -372 27 -38
70 -97 95 -130 25 -33 68 -91 95 -130 27 -38 52 -72 55 -75 3 -3 37 -48 75
-100 38 -52 85 -116 104 -142 l35 -48 483 0 483 0 -123 167 c-67 92 -243 333
-392 535 l-270 369 -483 2 c-265 1 -482 1 -482 -1z"/>
<path d="M14199 1146 c-82 -29 -148 -101 -174 -189 -21 -69 -20 -285 0 -355
20 -66 68 -129 129 -166 41 -26 60 -30 136 -34 146 -7 233 37 295 149 l30 54
0 175 0 175 -30 54 c-36 65 -92 115 -153 135 -55 19 -183 20 -233 2z m156 -97
c54 -14 109 -69 124 -126 6 -21 11 -85 11 -143 0 -127 -11 -170 -56 -220 -90
-99 -239 -59 -280 75 -19 63 -18 227 1 291 16 55 65 110 111 124 40 11 39 11
89 -1z"/>
<path d="M10950 774 l0 -377 163 6 c89 3 178 10 197 16 94 28 176 112 201 205
6 23 9 100 7 180 -3 121 -7 147 -25 182 -34 63 -66 97 -125 129 -52 30 -55 30
-235 33 l-183 4 0 -378z m338 252 c36 -19 75 -67 91 -115 6 -19 11 -78 11
-131 0 -106 -10 -148 -47 -198 -35 -47 -76 -64 -170 -70 l-83 -5 0 273 0 273
83 -5 c47 -3 97 -13 115 -22z"/>
<path d="M11650 775 l0 -375 240 0 240 0 0 55 0 55 -170 0 -170 0 0 115 0 115
145 0 145 0 0 55 0 55 -145 0 -145 0 0 100 0 100 165 0 165 0 0 50 0 50 -235
0 -235 0 0 -375z"/>
<path d="M12185 1053 c20 -54 80 -222 133 -373 l98 -275 64 0 63 0 98 275 c54
151 114 319 134 373 l34 97 -73 0 -73 0 -88 -275 c-49 -151 -92 -275 -95 -275
-3 0 -45 124 -94 275 l-89 275 -73 0 -73 0 34 -97z"/>
<path d="M12890 775 l0 -375 240 0 240 0 0 55 0 55 -170 0 -170 0 0 115 0 115
145 0 145 0 0 55 0 55 -145 0 -145 0 0 100 0 100 165 0 165 0 0 50 0 50 -235
0 -235 0 0 -375z"/>
<path d="M13460 775 l0 -375 240 0 240 0 0 55 0 55 -170 0 -170 0 0 320 0 320
-70 0 -70 0 0 -375z"/>
<path d="M14740 775 l0 -375 70 0 70 0 0 145 0 145 113 0 c141 0 191 15 245
74 53 58 71 130 52 214 -10 46 -21 66 -59 103 -28 29 -61 51 -86 58 -22 6
-120 11 -222 11 l-183 0 0 -375z m332 265 c56 -16 88 -60 88 -122 0 -44 -4
-54 -34 -84 l-34 -34 -106 0 -106 0 0 125 0 125 78 0 c42 0 94 -5 114 -10z"/>
<path d="M15400 775 l0 -375 240 0 240 0 0 55 0 55 -170 0 -170 0 0 115 0 115
145 0 145 0 0 55 0 55 -145 0 -145 0 0 100 0 100 165 0 165 0 0 50 0 50 -235
0 -235 0 0 -375z"/>
<path d="M15980 775 l0 -375 70 0 70 0 0 155 0 155 91 0 c89 0 92 -1 123 -32
31 -32 33 -37 39 -131 8 -134 17 -147 102 -147 68 0 74 5 53 43 -6 12 -15 68
-19 123 -9 129 -22 156 -97 200 -1 0 15 19 37 40 49 50 65 102 51 173 -12 62
-19 78 -57 113 -51 49 -98 58 -289 58 l-174 0 0 -375z m304 265 c55 -12 78
-39 83 -97 9 -87 -43 -123 -179 -123 l-68 0 0 115 0 115 63 0 c34 0 80 -5 101
-10z"/>
</g>
</svg>
